<?xml version="1.0" standalone="no"?>
<!DOCTYPE svg PUBLIC "-//W3C//DTD SVG 20010904//EN"
 "http://www.w3.org/TR/2001/REC-SVG-20010904/DTD/svg10.dtd">
<svg version="1.0" xmlns="http://www.w3.org/2000/svg"
 width="1536.000000pt" height="1024.000000pt" viewBox="0 0 1536.000000 1024.000000"
 preserveAspectRatio="xMidYMid meet">

<g transform="translate(0.000000,1024.000000) scale(0.100000,-0.100000)"
fill="#000000" stroke="none">
<path d="M4639 8420 c-9 -5 -21 -22 -27 -37 -15 -37 -45 -214 -37 -221 3 -3
-34 -14 -82 -23 -114 -23 -202 -69 -285 -148 -138 -129 -186 -254 -179 -466
l1 -50 213 -38 c116 -20 233 -40 259 -43 57 -8 191 14 443 71 258 58 325 68
447 64 90 -4 111 -8 163 -34 64 -32 195 -155 229 -216 19 -33 18 -32 -40 17
-76 66 -141 109 -212 142 -52 25 -67 27 -177 26 -109 -1 -146 -6 -405 -64
-365 -81 -426 -83 -690 -28 -200 43 -266 51 -550 73 -252 19 -472 43 -481 53
-4 4 -30 59 -58 122 -36 81 -69 138 -112 190 -33 40 -74 99 -89 131 -31 61
-50 75 -81 59 -40 -22 -37 -76 11 -203 34 -86 30 -117 -15 -117 -14 0 -96 25
-182 56 -249 90 -333 114 -390 114 -41 0 -54 -4 -62 -19 -20 -36 -15 -39 268
-157 122 -50 140 -64 117 -87 -18 -18 -5 -21 -246 53 -143 43 -205 55 -249 45
-31 -7 -51 -39 -34 -56 9 -9 80 -32 313 -101 141 -42 167 -56 157 -82 -8 -21
-22 -21 -215 14 -92 17 -179 32 -193 35 -15 2 -35 -2 -45 -9 -15 -12 -16 -16
-5 -29 13 -16 159 -54 330 -85 98 -18 130 -37 103 -64 -10 -10 -57 -6 -230 15
-283 36 -322 35 -322 -3 0 -16 15 -25 74 -44 11 -4 107 -15 215 -26 108 -11
311 -33 451 -50 167 -20 302 -31 389 -31 130 1 140 -1 285 -44 165 -48 462
-127 541 -144 160 -34 204 -36 685 -36 414 0 488 -2 508 -15 13 -8 58 -67 99
-130 153 -233 258 -348 401 -441 87 -57 160 -86 267 -106 44 -8 132 -28 196
-44 154 -38 372 -75 539 -89 151 -14 406 -2 547 25 43 8 78 15 78 15 0 0 -1
-181 -3 -402 -2 -221 -1 -417 3 -435 l6 -33 292 -1 292 -1 -165 -18 c-91 -10
-222 -24 -291 -31 l-127 -12 -7 -275 c-10 -356 -3 -515 24 -612 66 -230 80
-318 101 -630 26 -395 38 -1077 21 -1212 -19 -147 -126 -271 -323 -377 -108
-59 -166 -79 -289 -100 -122 -22 -159 -39 -159 -75 0 -35 17 -43 115 -57 123
-16 325 -7 455 21 88 19 119 21 190 14 159 -15 311 -11 347 9 75 40 86 100 47
252 -53 207 -46 407 36 1100 21 182 44 391 51 465 14 161 7 398 -17 600 -28
233 -14 312 172 975 104 368 234 877 254 992 l13 71 221 62 c443 124 914 260
1020 295 203 66 325 133 546 299 171 128 279 176 775 341 351 117 664 212 915
278 l195 51 291 4 c338 4 401 -3 739 -88 263 -66 346 -78 378 -57 69 45 28
184 -92 311 -94 98 -201 162 -408 242 -135 52 -171 70 -284 139 -247 152 -300
157 -392 38 -109 -140 -196 -194 -362 -222 -33 -6 -168 -25 -300 -41 -414 -52
-948 -138 -1161 -185 -236 -53 -432 -131 -580 -230 -92 -62 -129 -81 -200 -99
-89 -23 -331 -60 -684 -105 -407 -52 -558 -64 -646 -51 -38 5 -130 19 -204 30
-163 24 -319 26 -404 4 -33 -8 -128 -49 -211 -90 -194 -96 -243 -109 -415
-108 -221 0 -380 44 -740 202 -242 106 -320 135 -455 169 -173 43 -431 42
-590 -2 -18 -6 -20 -2 -17 44 7 93 -84 238 -187 301 -22 14 -41 28 -41 31 0 4
19 3 43 -2 113 -22 97 1 -23 32 l-90 24 51 22 c29 13 49 26 46 29 -3 3 -37 -1
-76 -10 -69 -16 -72 -16 -114 5 -23 12 -44 23 -46 25 -2 2 8 17 22 34 68 81
33 240 -67 301 -33 20 -100 25 -127 9z"/>
<path d="M2030 7241 c-34 -9 -33 -42 2 -59 14 -7 71 -17 125 -22 101 -10 630
-23 603 -15 -20 7 -592 92 -655 98 -27 3 -61 2 -75 -2z"/>
<path d="M2295 7101 c-152 -6 -175 -11 -175 -36 0 -31 41 -37 219 -35 209 3
201 4 201 -14 0 -23 -14 -27 -122 -37 -101 -8 -128 -20 -107 -46 31 -37 200
-20 623 64 l239 48 226 -39 c248 -42 475 -76 506 -75 11 0 -38 16 -108 34 -71
19 -181 51 -244 71 -206 64 -209 64 -678 68 -236 2 -497 1 -580 -3z"/>
<path d="M4540 6880 l-145 -5 70 -42 c101 -61 188 -94 266 -100 94 -8 138 10
219 92 l64 65 -164 -2 c-91 -1 -230 -5 -310 -8z"/>
</g>
</svg>
